<?xml version="1.0" encoding="utf-8"?>
<!-- Generator: Adobe Illustrator 28.1.0, SVG Export Plug-In . SVG Version: 6.00 Build 0)  -->
<svg version="1.1" id="Layer_1" xmlns="http://www.w3.org/2000/svg" xmlns:xlink="http://www.w3.org/1999/xlink" x="0px" y="0px"
	 viewBox="0 0 27 24" style="enable-background:new 0 0 27 24;" xml:space="preserve">
<style type="text/css">
	.st0{fill:#00A0E8;}
</style>
<g id="ديزين_00000071551440712811668460000009790144965751840421_">
	<path class="st0" d="M14.8,16.7l0.3-0.7c0,0,0.1-0.1,0.1-0.1s0.2,0.1,0.6,0.3c0.3,0.2,0.5,0.4,0.5,0.4c0,0.2-0.1,0.5-0.4,0.9
		c0,0.1-0.1,0.1-0.1,0.1c-0.3-0.2-0.6-0.4-1-0.7c-0.1,0.3-0.2,0.5-0.3,0.7c0,0.1-0.1,0.1-0.1,0.1c-0.3-0.3-0.7-0.5-1-0.7
		c0,0,0,0,0-0.1l0.4-0.9c0-0.1,0.1-0.1,0.1-0.1c0,0,0.2,0.1,0.5,0.3C14.5,16.5,14.7,16.6,14.8,16.7"/>
	<path class="st0" d="M6.5,13.5C6.5,13.5,6.5,13.5,6.5,13.5l0.4-1c0,0,0.1-0.1,0.1-0.1c0,0,0.2,0.1,0.6,0.3c0.3,0.2,0.5,0.4,0.5,0.4
		c0,0.1-0.1,0.5-0.4,0.9c0,0.1-0.1,0.1-0.1,0.1C7.2,14,6.9,13.7,6.5,13.5"/>
	<path class="st0" d="M3.8,11.1C5.4,10.5,7.1,9.8,9,9.2c0.1,0,0.1,0,0.1,0c0,0,0,0,0,0.1C9,9.5,8.9,9.6,8.9,9.6
		c-1.5,0.6-3.3,1.3-5.3,2.1C3.6,11.5,3.6,11.3,3.8,11.1"/>
	<path class="st0" d="M12.2,22.3c1.6-0.6,3.4-1.3,5.2-1.9c0.1,0,0.1,0,0.1,0c0,0,0,0,0,0.1c-0.1,0.2-0.1,0.3-0.2,0.3
		c-1.5,0.6-3.3,1.3-5.3,2.1C12,22.7,12.1,22.5,12.2,22.3"/>
	<path class="st0" d="M7.6,7.6c0,0.1-0.1,0.4-0.4,0.8c-0.3,0.4-0.6,0.8-0.9,1c-0.2,0.1-0.8,0.3-1.9,0.6c-0.2,0-0.3,0.1-0.3,0.1
		c0,0,0.1-0.1,0.2-0.2c0.1-0.1,0.5-0.3,1.1-0.6C6,9,6.4,8.8,6.5,8.7c0,0,0,0,0-0.1c0-0.1-0.5-0.2-1.6-0.2c0,0-0.2,0-0.6,0
		c-0.2,0-0.3,0-0.3,0c0,0,0-0.1,0.1-0.2l0.4-0.6c0.1-0.2,0.3-0.3,0.6-0.3c0.1,0,0.4,0,0.7,0C7,7.2,7.6,7.4,7.6,7.6"/>
	<path class="st0" d="M2.5,13.9C2.5,13.9,2.5,13.9,2.5,13.9C2.5,13.9,2.5,13.9,2.5,13.9C2.6,13.9,2.6,13.9,2.5,13.9
		c-0.1,0.7-0.2,1-0.5,1c-0.3,0-0.4-0.2-0.4-0.7c0-0.6,0.2-1.2,0.5-1.8c0.1-0.2,0.1-0.2,0.1-0.2c0,0,0,0.1-0.1,0.3
		c-0.2,0.7-0.3,1.1-0.3,1.4c0,0.4,0.1,0.5,0.3,0.5C2.2,14.3,2.3,14.2,2.5,13.9"/>
	<path class="st0" d="M15.9,8.1C16,8,16,8,16,8c0,0,0,0,0,0c0,0.1-0.1,0.2-0.2,0.4c-0.2,0.4-0.5,0.7-0.9,1c-0.4,0.3-0.8,0.5-1.1,0.7
		c-0.1,0-0.4,0.2-1.2,0.4c-0.1,0-0.2,0.1-0.2,0.1c0,0,0,0,0,0c0,0,0.1-0.1,0.2-0.2c0.6-0.3,1.4-0.8,2.5-1.5
		C15.5,8.6,15.8,8.3,15.9,8.1 M18.7,7.8c0,0.1,0,0.1-0.1,0.2c0,0.1-0.1,0.2-0.1,0.2c0,0-0.1-0.1-0.1-0.1c-0.1-0.1-0.1-0.1-0.2-0.1
		c-0.2,0-0.3,0.4-0.5,1.2c-0.1,0.4-0.1,0.6-0.2,0.8c-0.1,0.1-0.1,0.2-0.1,0.2c0,0-0.1,0-0.1-0.1c0-0.1-0.1-0.4-0.2-0.9
		c-0.2-0.4-0.3-0.6-0.4-0.6c0,0-0.1,0-0.1,0c0,0-0.1,0.1-0.1,0.1c-0.1,0-0.2-0.1-0.3-0.2c-0.1-0.1-0.2-0.2-0.2-0.3
		c0.2-0.4,0.3-0.5,0.3-0.5c0.3,0,0.5,0.1,0.7,0.4c0.2,0.3,0.3,0.7,0.4,1.1c0,0.1,0,0.1,0,0.1c0,0,0,0,0,0c0,0,0,0,0-0.1
		c0-0.3,0.1-0.7,0.3-1.3c0.2-0.4,0.3-0.6,0.5-0.6c0.1,0,0.2,0.1,0.3,0.2C18.6,7.6,18.7,7.7,18.7,7.8"/>
	<path class="st0" d="M11.9,11.6C11.9,11.6,11.9,11.6,11.9,11.6C12,11.6,12,11.6,11.9,11.6C12,11.6,12,11.6,11.9,11.6
		c-0.1,0.7-0.2,1-0.5,1c-0.3,0-0.4-0.2-0.4-0.7c0-0.6,0.2-1.2,0.5-1.8c0.1-0.2,0.1-0.2,0.1-0.2c0,0,0,0.1-0.1,0.3
		c-0.2,0.7-0.3,1.1-0.3,1.4c0,0.4,0.1,0.5,0.3,0.5C11.6,12.1,11.8,11.9,11.9,11.6"/>
	<path class="st0" d="M20.6,16l0.7,0.3c0,0,0.1,0.1,0.1,0.1c0,0-0.1,0.2-0.3,0.6c-0.2,0.3-0.4,0.5-0.4,0.5c-0.2,0-0.5-0.1-0.9-0.5
		c-0.1,0-0.1-0.1-0.1-0.1c0.2-0.3,0.5-0.6,0.7-1c-0.3-0.1-0.5-0.2-0.7-0.4c-0.1,0-0.1-0.1-0.1-0.1c0.3-0.3,0.5-0.7,0.7-1
		c0,0,0,0,0.1,0l0.9,0.4c0.1,0,0.1,0.1,0.1,0.1c0,0-0.1,0.2-0.3,0.5C20.8,15.7,20.7,15.9,20.6,16"/>
	<path class="st0" d="M15.9,11.4C15.9,11.4,15.9,11.3,15.9,11.4l0.4-1c0,0,0.1-0.1,0.1-0.1c0,0,0.2,0.1,0.6,0.4
		c0.3,0.2,0.5,0.4,0.5,0.4c0,0.1-0.1,0.5-0.4,0.9c0,0.1-0.1,0.1-0.1,0.1C16.6,11.9,16.3,11.6,15.9,11.4"/>
</g>
<g id="حودا_00000163071071606055448710000006258618835166666684_">
	<path class="st0" d="M14.2,3.3C14.1,3.2,14,3.1,14,3c0-0.1,0.1-0.2,0.2-0.3c0.1-0.1,0.2-0.1,0.3-0.1c0.1,0,0.1,0.1,0.1,0.2
		c0,0.1,0,0.2-0.1,0.3c0.1,0.1,0.1,0.1,0.2,0.1c0,0.1,0,0.1-0.1,0.2C14.4,3.4,14.4,3.4,14.2,3.3c0,0.2-0.1,0.3-0.3,0.4
		c-0.1,0.1-0.3,0.2-0.4,0.3c0,0-0.2,0.1-0.5,0.2c0,0-0.1,0-0.1,0v0c0,0,0,0,0.1-0.1c0.2-0.1,0.4-0.2,0.6-0.4
		C13.9,3.5,14.1,3.4,14.2,3.3 M14.3,3.1c0-0.1,0-0.1,0-0.2c0-0.1,0-0.1-0.1-0.1c0,0,0,0-0.1,0c0,0-0.1,0-0.1,0.1
		C14.1,2.9,14.2,3,14.3,3.1"/>
	<path class="st0" d="M10.1,1.4c0,0-0.1,0.1-0.1,0.3C9.8,1.8,9.7,1.9,9.6,1.9C9.5,2,9.3,2,9,2.1c-0.1,0-0.1,0-0.1,0c0,0,0,0,0.1-0.1
		S9.1,2,9.3,1.9c0.2-0.1,0.3-0.2,0.3-0.2c0,0,0,0,0,0c0,0-0.2-0.1-0.5-0.1c0,0-0.1,0-0.2,0c-0.1,0-0.1,0-0.1,0c0,0,0,0,0-0.1L9,1.3
		c0-0.1,0.1-0.1,0.2-0.1c0,0,0.1,0,0.2,0C9.9,1.2,10.1,1.3,10.1,1.4"/>
	<path class="st0" d="M9.6,6.5C9.6,6.5,9.7,6.5,9.6,6.5C9.7,6.5,9.7,6.5,9.6,6.5C9.7,6.5,9.7,6.5,9.6,6.5c0,0.3-0.1,0.4-0.2,0.4
		S9.3,6.8,9.3,6.6c0-0.2,0.1-0.5,0.2-0.7c0-0.1,0.1-0.1,0.1-0.1c0,0,0,0,0,0.1C9.4,6.2,9.4,6.3,9.4,6.4c0,0.1,0,0.2,0.1,0.2
		C9.5,6.7,9.6,6.6,9.6,6.5"/>
	<path class="st0" d="M12.3,4.6C12.3,4.6,12.3,4.6,12.3,4.6C12.3,4.6,12.3,4.6,12.3,4.6C12.3,4.6,12.3,4.6,12.3,4.6
		c0,0.3-0.1,0.5-0.3,0.5c-0.1,0-0.2-0.1-0.2-0.4c0-0.3,0.1-0.6,0.3-0.9c0-0.1,0.1-0.1,0.1-0.1c0,0,0,0.1,0,0.1
		c-0.1,0.3-0.2,0.6-0.2,0.7c0,0.2,0.1,0.3,0.2,0.3C12.1,4.8,12.2,4.7,12.3,4.6"/>
	<path class="st0" d="M14.6,3.4C14.7,3.3,14.7,3.3,14.6,3.4C14.7,3.3,14.7,3.3,14.6,3.4c0.1,0,0,0.1,0,0.2c-0.1,0.2-0.2,0.3-0.4,0.4
		c-0.2,0.1-0.3,0.2-0.5,0.3c0,0-0.2,0.1-0.5,0.2c0,0-0.1,0-0.1,0c0,0,0,0,0,0c0,0,0,0,0.1-0.1c0.3-0.1,0.6-0.4,1.1-0.7
		C14.5,3.6,14.6,3.5,14.6,3.4 M15.8,3.2C15.8,3.3,15.8,3.3,15.8,3.2c0,0.2-0.1,0.2-0.1,0.2c0,0,0,0-0.1-0.1c0,0-0.1-0.1-0.1-0.1
		c-0.1,0-0.1,0.2-0.2,0.5c0,0.2-0.1,0.3-0.1,0.3c0,0,0,0.1-0.1,0.1s0,0,0-0.1c0-0.1,0-0.2-0.1-0.4C15,3.6,15,3.5,14.9,3.5
		c0,0,0,0,0,0c0,0,0,0-0.1,0c0,0-0.1,0-0.1-0.1c-0.1-0.1-0.1-0.1-0.1-0.1c0.1-0.2,0.1-0.2,0.1-0.2c0.1,0,0.2,0.1,0.3,0.2
		c0.1,0.1,0.1,0.3,0.2,0.5c0,0,0,0,0,0c0,0,0,0,0,0c0,0,0,0,0,0c0-0.1,0.1-0.3,0.1-0.5C15.5,3.1,15.6,3,15.6,3c0,0,0.1,0,0.1,0.1
		C15.8,3.2,15.8,3.2,15.8,3.2"/>
</g>
<g id="ديزين_00000182523011819631810450000015540678964709541797_">
	<path d="M20.1,13.9c-0.1,0-0.1-0.2-0.1-0.5c0-0.2,0-0.4-0.1-0.5c-0.1,0-0.3,0.2-0.4,0.6c-0.2,0.5-0.4,0.8-0.5,1
		c-0.2,0.3-0.5,0.5-0.8,0.5v-1.3c0.3,0,0.6-0.2,0.8-0.5c0.1-0.1,0.3-0.5,0.5-0.9c0.2-0.3,0.3-0.5,0.4-0.5c0.1,0,0.2,0.1,0.3,0.3
		c0.1,0.2,0.1,0.5,0.1,0.7c0,0.2,0,0.4-0.1,0.7C20.3,13.7,20.2,13.9,20.1,13.9"/>
	<path d="M9.9,18.5c0-0.9,0.2-1.9,0.6-2.9c0.1-0.2,0.1-0.3,0.2-0.3c0,0,0,0,0,0.1c0,0.1,0,0.2-0.1,0.3c-0.3,1-0.4,1.7-0.4,2.2
		c0,0.4,0.1,0.8,0.4,1.2c0.3,0.5,0.8,0.7,1.3,0.7c0.6,0,1.4-0.2,2.3-0.7c0.7-0.4,1.4-0.9,2.1-1.4c0.6-0.5,1-0.9,1.1-1.1
		c0-0.7-0.2-1.5-0.6-2.4c-0.1-0.1-0.1-0.3-0.1-0.4c0-0.1,0.1-0.4,0.3-0.9c0-0.1,0.1-0.2,0.1-0.2c0,0,0.1,0.1,0.2,0.2
		c0.1,0.3,0.2,0.4,0.3,0.5c0.1,0.2,0.4,0.2,0.7,0.2V15c-0.1,0-0.3,0-0.4,0c0,1.6-0.2,2.7-0.7,3.3c-0.5,0.6-1.2,1.2-2.1,1.8
		c-1.2,0.8-2.2,1.1-3,1.1c-0.8,0-1.3-0.3-1.7-1C10,19.6,9.9,19.1,9.9,18.5"/>
	<path d="M19.8,21.3c-0.9,0-1.4-0.6-1.4-1.8c0-0.9,0.2-1.9,0.6-2.8c0.1-0.2,0.1-0.3,0.2-0.3c0,0,0,0,0,0.1c0,0.1,0,0.2-0.1,0.3
		c-0.3,1-0.4,1.7-0.4,2.2c0,0.4,0.1,0.6,0.3,0.9c0.2,0.2,0.4,0.2,0.7,0.2c0.6,0,1.7-0.5,3.4-1.6c1.5-1,2.4-1.6,2.6-1.8
		c0.1-0.1,0.1-0.2,0.1-0.2c0-0.1-0.1-0.3-0.3-0.4c-0.3-0.2-0.7-0.5-1.4-0.8c-0.7-0.3-1.2-0.6-1.5-0.8c-0.6-0.4-1.1-0.9-1.6-1.5
		c-0.1-0.1-0.2-0.2-0.4-0.3c-0.1-0.1-0.1-0.2-0.1-0.4v-0.8c0-0.1,0-0.1,0-0.1c0,0,0.1,0,0.2,0l1.4,0.6c0,0,0.1,0.1,0.1,0.1
		c0.2,0.1,0.3,0.2,0.2,0.3c-0.1,0.1-0.3,0.1-0.8,0.1c0.5,0.5,1.2,0.9,2,1.3c1,0.5,1.6,0.8,1.8,0.9c0.4,0.3,0.6,0.8,0.6,1.6
		c0,0.1,0,0.3,0,0.4c-0.1,0.4-0.2,0.7-0.2,0.9c-0.1,0.1-0.2,0.3-0.4,0.5c-0.4,0.3-1.2,1-2.5,1.8C21.3,20.8,20.3,21.3,19.8,21.3"/>
	<path d="M14.4,13c0,0.8-0.2,1.3-0.5,1.8c-0.3,0.4-0.6,0.5-1,0.5V14c0.5,0,0.8-0.1,1-0.4c0-0.1-0.1-0.4-0.3-0.6
		c-0.1-0.1-0.1-0.2-0.1-0.4c0-0.1,0.1-0.4,0.3-0.9c0-0.1,0.1-0.2,0.1-0.2c0.1,0,0.1,0.1,0.2,0.2C14.3,12.2,14.4,12.7,14.4,13"/>
	<path d="M5.5,21.5c-1.6,0-2.8-0.8-3.4-2.4c-0.1-0.3-0.2-0.7-0.2-1.2c0-0.3,0-0.6,0.1-1C2,16.4,2.2,16,2.3,15.6
		c0-0.1,0.1-0.2,0.1-0.2c0,0,0.1,0.1,0,0.2c-0.1,0.2-0.1,0.4-0.2,0.7c-0.1,0.4-0.1,0.7-0.1,0.9c0,0.7,0.2,1.3,0.7,1.8
		c0.6,0.8,1.5,1.1,2.6,1.1c1,0,2.1-0.2,3.1-0.7c0.9-0.4,1.7-0.9,2.4-1.4c0.6-0.5,1-0.8,1.1-1.1c0-0.7-0.2-1.5-0.6-2.4
		c-0.1-0.2-0.1-0.3-0.1-0.4c0-0.1,0.1-0.4,0.2-0.9c0-0.1,0.1-0.1,0.1-0.1c0,0,0.1,0.1,0.2,0.2c0.1,0.3,0.2,0.4,0.3,0.5
		c0.1,0.2,0.4,0.2,0.7,0.2v1.3c-0.2,0-0.3,0-0.3,0c0,0.9,0,1.6-0.2,2.1c-0.1,0.5-0.3,0.9-0.5,1.2c-0.7,0.7-1.6,1.3-2.6,1.9
		C7.9,21.2,6.6,21.5,5.5,21.5"/>
</g>
<g id="حودا_00000144306371784929052110000010194630581010215580_">
	<path d="M18.4,5.5l-0.2,0.4C18.2,6,18.2,6,18.1,6h-0.9c-0.3,0-0.9,0.1-1.8,0.4c-0.2,0.1-0.6,0.2-1.1,0.4V6.2
		C14.8,6,15.3,5.8,16,5.6l-1.3-0.3c-0.1,0-0.2-0.1-0.3-0.1c0,0-0.1,0-0.1,0.1c0,0-0.1,0.1-0.2,0c-0.3,0-0.5,0-0.9-0.1
		c-0.1,0-0.1,0-0.1-0.1c0,0,0-0.1,0-0.1l0.2-0.4c0-0.1,0.1-0.1,0.1-0.1c0.4-0.1,0.7-0.1,0.9-0.1c0.5,0.2,1.2,0.4,2.1,0.7
		c0.2,0,0.5,0.1,0.9,0.1C18.1,5.4,18.3,5.4,18.4,5.5C18.4,5.4,18.4,5.5,18.4,5.5"/>
	<path d="M14,7.1c0-0.1,0-0.1,0-0.2C13.8,6.9,13.6,7,13.4,7c-0.5,0-0.8-0.2-0.8-0.6c0-0.3,0.1-0.5,0.3-0.8c0.2-0.2,0.3-0.3,0.5-0.3
		c0.1,0,0.3,0.1,0.5,0.3C14,5.8,14.1,6,14.2,6.2c0,0,0,0,0.1,0v0.6l0,0c0,0.1,0,0.3-0.1,0.5C14.1,7.6,14,7.8,13.8,8
		c-0.3,0.4-0.7,0.7-1.1,1.1c-0.6,0.5-1.1,0.7-1.6,0.7c-0.4,0-0.7-0.1-0.9-0.4C10.1,9,10,8.7,10,8.4c0-0.5,0.1-1,0.3-1.5
		c0.1-0.1,0.1-0.2,0.1-0.2c0,0,0,0,0,0c0,0,0,0.1,0,0.2c-0.1,0.5-0.2,0.9-0.2,1.1c0,0.2,0.1,0.4,0.2,0.6C10.5,8.9,10.8,9,11.2,9
		c0.3,0,0.7-0.1,1.2-0.4c0.4-0.2,0.8-0.5,1.1-0.9C13.8,7.4,14,7.2,14,7.1 M13.6,6.3C13.5,6.1,13.3,6,13.2,6C13,6,12.9,6,12.9,6.1
		c0,0.1,0.1,0.2,0.4,0.2C13.4,6.3,13.5,6.3,13.6,6.3"/>
	<path d="M9.8,9.1c-0.4,0-0.6-0.3-0.6-0.8c0-0.4,0.1-0.8,0.2-1.2C9.5,7,9.5,7,9.5,7c0,0,0,0,0,0c0,0,0,0.1,0,0.1
		C9.4,7.5,9.3,7.9,9.3,8.1c0,0.2,0,0.3,0.1,0.4c0.1,0.1,0.2,0.1,0.3,0.1c0.3,0,0.7-0.2,1.4-0.7c0.7-0.4,1-0.7,1.1-0.8
		c0,0,0.1-0.1,0.1-0.1c0-0.1,0-0.1-0.1-0.2c-0.1-0.1-0.3-0.2-0.6-0.3c-0.3-0.1-0.5-0.3-0.7-0.4c-0.3-0.2-0.5-0.4-0.7-0.6
		c0,0-0.1-0.1-0.2-0.1c0,0-0.1-0.1-0.1-0.2V4.8c0,0,0-0.1,0-0.1c0,0,0,0,0.1,0L10.8,5c0,0,0,0,0.1,0C10.9,5.1,11,5.2,11,5.2
		c0,0-0.1,0-0.3,0c0.2,0.2,0.5,0.4,0.8,0.6c0.4,0.2,0.7,0.3,0.8,0.4c0.2,0.1,0.3,0.3,0.3,0.7c0,0.1,0,0.1,0,0.2
		c0,0.2-0.1,0.3-0.1,0.4c0,0.1-0.1,0.1-0.2,0.2C12,7.8,11.7,8,11.1,8.4C10.4,8.9,10,9.1,9.8,9.1"/>
	<path d="M9.5,3c0-0.2,0-0.3-0.1-0.5c0-0.1,0.1-0.2,0.2-0.5c0,0,0,0,0,0c0,0,0,0,0,0c0,0.1,0.1,0.2,0.2,0.5c0.1,0.3,0.2,0.5,0.2,0.6
		c0,0.1,0,0.1,0,0.1c0,0.1-0.1,0-0.2-0.2c0,0,0,0,0,0c0,0,0,0.6,0.1,1.7c0.1,1.1,0.1,1.8,0.1,1.9c0,0.4-0.1,0.8-0.2,1.2
		c0,0.1-0.1,0.1-0.1,0.1c0,0,0,0.1-0.1,0s0-0.1,0-0.2c0-0.2,0-0.3,0-0.5c0-0.2,0-0.9-0.1-2.2C9.6,3.9,9.5,3.2,9.5,3"/>
</g>
</svg>
