<?xml version="1.0" encoding="utf-8"?>
<!-- Generator: Adobe Illustrator 28.1.0, SVG Export Plug-In . SVG Version: 6.00 Build 0)  -->
<svg version="1.1" id="Layer_1" xmlns="http://www.w3.org/2000/svg" xmlns:xlink="http://www.w3.org/1999/xlink" x="0px" y="0px"
	 viewBox="0 0 1755 612" style="enable-background:new 0 0 1755 612;" xml:space="preserve">
<style type="text/css">
	.st0{fill:#FFED00;}
	.st1{fill:#F9007F;}
	.st2{fill:#00A0E8;}
</style>
<g id="Color">
	<rect x="13.5" y="247" width="76.6" height="76.7"/>
	<rect x="13.5" y="323.4" class="st0" width="76.6" height="76.7"/>
	<rect x="13.5" y="399.7" class="st1" width="76.6" height="76.7"/>
	<rect x="13.5" y="476.1" class="st2" width="76.6" height="76.7"/>
</g>
<g>
	<g id="Script">
		<g id="Icon">
			<path class="st2" d="M941.8,375.1l0,123.4c0,24.5-19.9,44.3-44.3,44.3H774.1c8.2-39.9,27.7-78,58.7-109
				C863.8,402.8,901.9,383.3,941.8,375.1z"/>
		</g>
		<g id="ديزين_00000074426919670338150770000000917160767686815642_">
			<path class="st2" d="M1300.1,421.2l7.1-15c0.9-0.9,1.4-1.4,2.2-1.4c0.9,0,4.8,2.2,12.4,7.1c7.1,5.3,10.7,7.9,10.7,8.8
				c0,3.6-3.1,10.2-9.8,20.4c-0.5,1.4-1.4,1.7-2.2,1.4c-6.2-4.8-13.8-9.8-21.7-15c-2.6,6.2-5.3,11.5-7.6,15.5
				c-0.9,1.4-1.7,1.7-2.6,1.4c-7.1-5.7-14.6-11-22.2-15.5c-0.5-0.5-0.5-0.9,0-1.7l8.8-19.1c0.9-1.4,1.4-1.7,2.2-1.7
				c0.9,0,4.5,2.2,10.2,6.2C1293.9,416.3,1297.9,419.4,1300.1,421.2"/>
			<path class="st2" d="M1119.8,351.2c-0.5,0-0.5-0.9,0-1.7l8.8-19.1c0.9-0.9,1.4-1.4,2.2-1.4s4.8,2.2,12.4,7.6
				c7.1,4.8,10.7,7.9,10.7,8.8c0,3.1-3.1,10.2-9.3,20.4c-0.9,1.4-1.7,1.7-2.6,1.4C1134.9,361.3,1127.3,356.1,1119.8,351.2"/>
			<path class="st2" d="M1058.9,298.5c35.9-13.3,73.9-27.4,113.4-42.1c1.7-0.5,2.6-0.9,2.6-0.5c0.5,0,0.5,0.9,0,2.2
				c-1.7,4.5-3.1,7.1-4.5,7.6c-33.2,12.4-71.8,27.9-116.5,46C1054.9,307.8,1056.3,303.4,1058.9,298.5"/>
			<path class="st2" d="M1243.4,543.1c35.9-13.3,73.9-27.4,113.4-42.1c1.7-0.5,2.6-0.9,2.6-0.5c0.5,0,0.5,0.9,0,2.2
				c-1.7,4.5-3.1,7.1-4.5,7.6c-33.2,12.4-71.8,27.9-116.5,46C1239.5,552.4,1240.7,547.9,1243.4,543.1"/>
			<path class="st2" d="M1143.8,223.2c0,2.6-3.1,8.4-9.8,17.3c-7.1,9.8-13.8,17.3-20.4,21.7c-4,3.1-17.7,7.6-41.2,13.8
				c-4,0.9-6.2,1.4-6.2,1.4c0.5-0.5,1.7-1.7,4.5-4c3.1-2.2,11.5-6.7,24.8-13.8c13.3-7.1,20.8-11.5,23.1-13.3
				c0.5-0.5,0.5-0.9,0.5-1.4c0-3.1-11.5-4.5-34.6-4.5c0,0-4.5,0-13.3,0.5c-4.5,0-6.2,0-6.2-0.9c0-0.5,0.5-1.7,1.4-3.6l8.4-14.2
				c2.2-4,6.7-6.7,12.9-7.6c2.6-0.5,7.9-0.5,16-0.5C1130.6,214.4,1143.8,217.5,1143.8,223.2"/>
			<path class="st2" d="M1031.2,360.5c0.5-0.5,0.9-0.9,0.9-0.9c0.5-0.5,0.5-0.5,0.5,0c0.5,0.5,0.5,0.9,0,1.4
				c-2.6,14.2-6.7,21.2-12.4,21.2c-6.2,0-9.3-5.3-9.3-16c0-12.4,3.6-26.2,11-39.8c1.7-3.6,2.6-5.3,3.1-5.3c0,0.5-0.5,2.6-1.4,5.7
				c-5.3,14.6-7.6,24.8-7.6,30.5c0,7.9,2.2,11.9,6.7,11.9C1025,369.4,1028.1,366.3,1031.2,360.5"/>
			<path class="st2" d="M1323.8,233.1c1.4-1.7,1.7-2.6,2.6-2.6c0,0.5,0,0.5,0,0.9c0,1.4-1.4,4.5-4,9.8c-4.5,8.4-11,16-19.5,22.2
				c-8.8,6.7-16.9,11-24.3,14.6c-1.4,0.5-9.8,4-25.3,9.8c-2.2,0.9-4,1.4-4.8,1.4c-0.5,0-0.5-0.5-0.5-0.5c0-0.5,1.4-1.7,4-3.6
				c12.9-7.1,31-18.1,54.1-33.6C1315.4,244.2,1321.6,238,1323.8,233.1 M1384.5,226c0,1.4-0.5,3.1-1.4,4.8c-0.9,3.1-1.7,4.5-3.1,4.5
				c-0.5,0-1.4-1.4-3.1-3.1c-1.4-2.2-3.1-3.1-4.8-3.1c-4,0-7.6,8.8-10.7,27c-1.4,7.9-3.1,13.3-4.8,16.4c-1.4,2.2-2.2,3.6-3.1,3.6
				s-1.4-0.9-1.4-3.1c0-3.1-1.7-9.3-5.3-18.6c-3.6-8.8-6.2-13.3-7.9-13.3c-0.9,0-1.4,0-1.7,0.9c-0.5,0.9-1.4,1.4-2.6,1.4
				c-1.7,0-4-1.4-7.1-4c-2.6-2.6-4-4.5-3.6-5.7c4.5-7.9,7.1-11.9,7.6-11.9c5.7,0,10.7,3.1,14.6,9.3c4.5,6.7,7.6,14.6,8.8,24.8
				c0.5,1.4,0.5,1.7,0.5,1.7c0.5,0.5,0.5,0.5,0.5,0c0,0,0.5-0.5,0.9-1.7c0.9-6.2,2.6-15,6.2-27.4c3.6-8.8,7.6-12.9,11.9-12.9
				c2.2,0,4.5,1.4,6.7,4.5C1383.2,222.5,1384.5,224.7,1384.5,226"/>
			<path class="st2" d="M1236.8,310.5c0.5-0.5,0.9-0.9,0.9-0.9c0.5-0.5,0.5-0.5,0.5,0c0.5,0.5,0.5,0.9,0,1.4
				c-2.6,14.2-6.7,21.2-12.4,21.2c-6.2,0-9.3-5.3-9.3-16c0-12.4,3.6-26.2,11-39.8c1.7-3.6,2.6-5.3,3.1-5.3c0,0.5-0.5,2.6-1.4,5.7
				c-5.3,14.6-7.6,24.8-7.6,30.5c0,7.9,2.2,11.9,6.7,11.9C1230.6,319.4,1233.7,316.3,1236.8,310.5"/>
			<path class="st2" d="M1426.2,405.8l15.3,7.2c0.9,0.9,1.3,1.3,1.3,2.3s-2.3,4.9-7.2,12.6c-5.4,7.2-8.1,10.8-9,10.8
				c-3.6,0-10.4-3.1-20.7-9.9c-1.3-0.5-1.8-1.3-1.3-2.3c4.9-6.3,9.9-14,15.3-22c-6.3-2.7-11.7-5.4-15.8-7.7
				c-1.3-0.9-1.8-1.8-1.3-2.7c5.9-7.2,11.3-14.9,15.8-22.5c0.5-0.5,0.9-0.5,1.8,0l19.4,9c1.3,0.9,1.8,1.3,1.8,2.3s-2.3,4.5-6.3,10.4
				C1431.1,399.5,1428,403.5,1426.2,405.8"/>
			<path class="st2" d="M1324.4,304.7c-0.5,0-0.5-0.9,0-1.8l9-19.4c0.9-0.9,1.3-1.3,2.3-1.3c0.9,0,4.9,2.3,12.6,7.7
				c7.2,4.9,10.8,8.1,10.8,9c0,3.1-3.1,10.4-9.5,20.7c-0.9,1.3-1.8,1.8-2.7,1.3C1339.7,315.1,1332.1,309.7,1324.4,304.7"/>
		</g>
		<g id="حودا_00000072272481059570185910000009087940583520457623_">
			<path class="st2" d="M1287.3,127.8c-3.5-1.9-5.3-3.7-5.3-5.7c0-2.5,1.2-4.6,3.5-6.6c2.1-1.9,3.9-2.8,5.5-2.1
				c1.2,0.5,1.9,1.6,1.9,3.9c0,2.1-0.5,4.1-1.4,6.6c1.9,1.2,3,1.9,3.5,2.5c0,1.2-0.9,2.8-2.5,4.8c-0.5-0.7-1.4-1.4-3-2.5
				c-2.1,2.8-4.6,5.3-7.6,7.3c-3.2,2.5-6.4,4.4-9.2,5.7c-0.7,0.2-3.9,1.6-9.9,3.7c-0.9,0.5-1.6,0.7-2.1,0.7V146
				c0-0.2,0.5-0.7,1.4-1.4c4.6-2.5,9-5.3,13.3-7.8C1280.7,133.6,1284.8,130.6,1287.3,127.8 M1289.4,123c0.5-1.2,0.5-2.3,0.2-3.5
				c-0.2-1.2-0.7-1.6-1.6-1.6c-0.5,0-0.9,0.2-1.6,0.5c-0.7,0.5-1.2,0.9-1.2,1.2C1285.3,120.4,1286.7,121.6,1289.4,123"/>
			<path class="st2" d="M1196.3,85.8c0,0.7-1.2,2.5-3.2,5.5c-2.3,3.2-4.4,5.5-6.4,7.1c-1.4,0.9-5.7,2.3-13.3,4.4
				c-1.4,0.2-2.1,0.5-2.1,0.5c0-0.2,0.5-0.7,1.4-1.4c0.9-0.7,3.7-2.1,8-4.6c4.1-2.1,6.6-3.7,7.3-4.1c0.2-0.2,0.2-0.2,0.2-0.5
				c0-0.9-3.7-1.4-11.3-1.4c0,0-1.4,0-4.4,0c-1.2,0.2-1.9,0-1.9-0.2c0-0.2,0-0.5,0.5-1.2l2.5-4.6c0.9-1.2,2.3-2.1,4.4-2.5
				c0.7,0,2.5,0,5,0C1192,82.9,1196.3,83.8,1196.3,85.8"/>
			<path class="st2" d="M1187.3,198c0-0.2,0.2-0.2,0.2-0.5c0.2,0,0.2,0,0.2,0c0,0.2,0,0.5,0,0.7c-1.2,5.5-2.8,8.3-5,8.3
				c-2.3,0-3.5-2.1-3.5-6.2c0-4.8,1.4-10.1,4.1-15.4c0.7-1.4,1.2-2.1,1.4-2.1c0,0.2-0.2,0.9-0.7,2.3c-1.9,5.5-2.8,9.7-2.8,11.7
				c0,3.2,0.7,4.8,2.5,4.8C1184.8,201.7,1186,200.3,1187.3,198"/>
			<path class="st2" d="M1244.5,156.8c0.2-0.2,0.5-0.5,0.5-0.5c0.2-0.2,0.2-0.2,0.2,0c0.2,0.2,0.2,0.5,0,0.7c-1.4,7.3-3.5,11-6.4,11
				c-3.2,0-4.8-2.8-4.8-8.3c0-6.4,1.9-13.5,5.7-20.7c0.9-1.9,1.4-2.8,1.6-2.8c0,0.2-0.2,1.4-0.7,3c-2.8,7.6-3.9,12.9-3.9,15.9
				c0,4.1,1.2,6.2,3.5,6.2C1241.4,161.4,1242.9,159.8,1244.5,156.8"/>
			<path class="st2" d="M1296.4,130c0.6-0.7,0.7-1.1,1.1-1.1c0,0.2,0,0.2,0,0.4c0,0.6-0.6,1.9-1.7,4.2c-1.9,3.6-4.7,6.8-8.3,9.5
				c-3.8,2.9-7.2,4.7-10.4,6.3c-0.6,0.2-4.2,1.7-10.8,4.2c-1,0.4-1.7,0.6-2.1,0.6c-0.2,0-0.2-0.2-0.2-0.2c0-0.2,0.6-0.7,1.7-1.5
				c5.5-3,13.3-7.8,23.1-14.4C1292.8,134.7,1295.4,132.1,1296.4,130 M1322.3,126.9c0,0.6-0.2,1.3-0.6,2.1c-0.4,1.3-0.7,1.9-1.3,1.9
				c-0.2,0-0.6-0.6-1.3-1.3c-0.6-1-1.3-1.3-2.1-1.3c-1.7,0-3.2,3.8-4.6,11.6c-0.6,3.4-1.3,5.7-2.1,7c-0.6,1-1,1.5-1.3,1.5
				s-0.6-0.4-0.6-1.3c0-1.3-0.7-4-2.3-8c-1.5-3.8-2.7-5.7-3.4-5.7c-0.4,0-0.6,0-0.7,0.4c-0.2,0.4-0.6,0.6-1.1,0.6
				c-0.7,0-1.7-0.6-3-1.7c-1.1-1.1-1.7-1.9-1.5-2.4c1.9-3.4,3-5.1,3.2-5.1c2.4,0,4.6,1.3,6.3,4c1.9,2.9,3.2,6.3,3.8,10.6
				c0.2,0.6,0.2,0.7,0.2,0.7c0.2,0.2,0.2,0.2,0.2,0c0,0,0.2-0.2,0.4-0.7c0.4-2.7,1.1-6.4,2.7-11.7c1.5-3.8,3.2-5.5,5.1-5.5
				c1,0,1.9,0.6,2.9,1.9C1321.8,125.4,1322.3,126.4,1322.3,126.9"/>
		</g>
	</g>
	<g id="Logo">
		<g id="icon">
			<path d="M954,101.6c-0.8-8.6-8.5-15-17.1-14.1c-8.6,0.8-14.9,8.5-14.1,17.1c0.5,5.6,0.5,11.2,0,16.7c-0.8,10.7-3.3,21-7.4,30.6
				c-0.3,0.6-0.5,1.2-0.8,1.8c-2.1,4.7-4.6,9.2-7.5,13.5c-0.5,0.7-1,1.4-1.5,2.1c-3,4.3-6.3,8.4-10,12.1c-4.1,4.1-8.6,7.6-13.3,10.8
				c-1.5,1-3.1,2-4.6,2.9c-3.4,2.1-6.9,3.9-10.4,5.5c-1.7,0.8-3.3,1.6-5.1,2.3c-4.8,1.9-9.8,3.3-14.8,4.4c-1.9,0.4-3.8,0.5-5.7,0.8
				c-3.5,0.5-6.9,0.9-10.4,1c-2.4,0.1-4.8,0.1-7.2,0c-3.1-0.1-6.2-0.5-9.3-0.9c-2.4-0.3-4.8-0.6-7.2-1.1c-4.8-1-9.5-2.4-14.1-4.2
				l-2.8-1.1c-11.1-4.7-21.6-11.4-30.6-20.5L670.8,92c-6.1-6.1-16-6.1-22.1,0c-6.1,6.1-6.1,16,0,22.1l89.4,89.4
				c9,9,15.8,19.5,20.4,30.6l1.1,2.9c1.7,4.6,3.1,9.2,4.1,14c0.5,2.5,0.8,5,1.1,7.5c0.4,3,0.7,6,0.9,9c0.1,2.5,0.1,4.9,0,7.3
				c-0.1,3.4-0.5,6.8-1,10.1c-0.3,2-0.4,4-0.8,5.9c-1,5-2.5,9.9-4.4,14.8c-0.7,1.8-1.5,3.5-2.3,5.2c-1.6,3.5-3.4,7-5.4,10.3
				c-1,1.6-1.9,3.2-3,4.7c-3.2,4.6-6.6,9-10.7,13.1c0,0-0.1,0.1-0.1,0.1c-0.1,0.1-0.1,0.1-0.2,0.1c-4.1,4.1-8.5,7.5-13.1,10.7
				c-1.5,1.1-3.1,2-4.7,3c-3.3,2-6.7,3.8-10.2,5.3c-1.8,0.8-3.5,1.7-5.3,2.4c-4.8,1.8-9.7,3.3-14.6,4.3c-2,0.4-4.1,0.6-6.2,0.9
				c-3.3,0.5-6.5,0.8-9.8,0.9c-2.5,0.1-5,0.1-7.5,0c-2.9-0.1-5.9-0.5-8.8-0.8c-2.5-0.3-5.1-0.6-7.6-1.1c-4.7-1-9.4-2.4-13.9-4.1
				l-2.9-1.1c-11.1-4.7-21.6-11.4-30.6-20.4L355.5,92c-6.1-6.1-16-6.1-22.1,0c-6.1,6.1-6.1,16,0,22.1l247.1,247.1
				c8.5,8.5,15.1,18.3,19.8,28.9l1.8,4.6c11.7,30.5,6.9,64.6-11.8,90.4c-0.5,0.6-0.9,1.3-1.4,1.9c-2.6,3.4-5.3,6.6-8.3,9.7
				c-16.4,16.4-38.5,26.1-62.4,27.5l0,0.3c-1.8,0.1-3.6,0.3-5.4,0.3c-25.6,0-49.7-10-67.7-28.1L40.3,92c-6.1-6.1-16-6.1-22.1,0
				c-6.1,6.1-6.1,16,0,22.1l404.7,404.7c24,24,55.9,37.2,89.9,37.2c4.1,0,8.2-0.2,12.3-0.6H910c24.5,0,44.5-20,44.5-44.5V119.9
				l-0.2,0C954.6,113.9,954.6,107.8,954,101.6z M923.2,197.9V511c0,7.2-5.9,13.2-13.1,13.2H596.9c1.9-1.7,3.8-3.5,5.7-5.3
				c3.8-3.8,7.2-7.8,10.4-11.9c0.7-0.9,1.3-1.8,2-2.7c2.9-3.9,5.5-7.9,7.9-12.1c0.1-0.3,0.3-0.5,0.5-0.8
				c10.7-18.8,16.4-40.2,16.4-62.4c0-12.2-1.8-24.2-5.1-35.6c11.4,3.3,23.4,5.1,35.6,5.1c22.3,0,43.6-5.8,62.5-16.5
				c0.2-0.1,0.3-0.2,0.5-0.3c4.3-2.4,8.4-5.2,12.4-8.1c0.9-0.6,1.7-1.3,2.6-1.9c4.2-3.2,8.2-6.7,12-10.4c3.8-3.8,7.2-7.8,10.3-11.9
				c0.8-1,1.6-2.1,2.3-3.2c2.5-3.5,4.9-7,7-10.7c0.5-0.8,1-1.7,1.5-2.5c5.2-9.4,9.1-19.3,11.8-29.5c0.2-0.6,0.3-1.2,0.4-1.8
				c1.2-5,2.2-10.1,2.8-15.2c0-0.2,0-0.3,0.1-0.5c1.3-11,1.1-22.2-0.5-33.2c0-0.3-0.1-0.5-0.1-0.8c-0.8-5.5-1.9-11.1-3.5-16.5
				c5.4,1.6,10.9,2.7,16.4,3.5c0.3,0.1,0.6,0.1,1,0.1c6.1,0.9,12.2,1.5,18.3,1.5c4.9,0,9.8-0.4,14.7-0.9c0.2,0,0.4-0.1,0.6-0.1
				c5.1-0.6,10.1-1.6,15.1-2.8c0.6-0.1,1.2-0.3,1.8-0.4c10.2-2.7,20.1-6.6,29.5-11.8c0.8-0.5,1.6-1,2.5-1.5c3.7-2.1,7.2-4.5,10.7-7
				c1.1-0.8,2.1-1.5,3.2-2.3c4.1-3.2,8.1-6.6,11.9-10.3C919.7,201.7,921.5,199.9,923.2,197.9z"/>
		</g>
		<g id="ديزين">
			<path d="M1415.5,359.6c-1.3,0-1.8-3.6-1.8-10.4c0-4.9-0.5-8.6-1.8-9.9c-2.7,0.5-5.9,4.5-9.5,12.2c-4.9,10.4-8.6,17.6-11.3,21.2
				c-4.9,6.3-10.8,9.9-17.1,9.9v-29.3c6.3,0,12.2-4.1,18.1-11.3c2.3-3.1,5.9-9.9,11.7-20.7c3.6-7.2,6.7-10.8,9-10.8
				c2.7,0,4.9,2.3,6.7,6.7c2.3,4.9,3.1,9.9,3.1,15.3c0,3.6-0.9,8.6-1.8,14.9C1419.2,355.6,1417.8,359.6,1415.5,359.6"/>
			<path d="M1193.4,459.2c0-20.2,4.1-41.4,12.6-62.6c1.8-4.5,3.1-6.7,4.1-6.7c0.5,0,0.9,0.5,0.9,1.3c0,1.8-0.5,4.1-1.3,6.7
				c-6.3,21.2-9,37-9,48.2c0,9.5,3.1,18.4,9,27c7.2,10.4,16.7,15.3,28.4,15.3c13.1,0,29.7-5.4,49.6-16.3
				c15.8-8.6,31.1-18.9,46.9-31.6c13.5-11.3,21.6-18.9,23.4-23.4c0-16.3-4.5-33.8-14-52.3c-1.8-3.1-2.7-6.3-2.7-8.1
				c0-1.3,1.8-8.1,5.9-20.7c0.5-2.3,1.3-3.6,2.3-3.6s2.3,1.8,3.6,4.9c2.7,5.9,4.5,9.5,5.9,10.4c3.1,3.6,8.6,5.4,15.3,5.4v29.3
				c-3.1,0-5.9-0.5-7.7-0.9c0,35.6-4.9,59.5-15.8,71.7c-10.8,12.6-26.1,25.7-46.4,38.8c-25.2,16.7-47.3,24.8-65.8,24.8
				c-16.7,0-28.8-7.2-37-22C1196.1,484.4,1193.4,472.7,1193.4,459.2"/>
			<path d="M1408.3,520.9c-20.4,0-30.1-13.3-30.1-39.8c0-20,4-40.8,12.4-61.5c1.7-4.5,3.1-6.7,4-6.7c0.5,0,0.9,0.5,0.9,1.4
				c0,1.7-0.5,4-1.4,6.7c-6.2,20.8-8.8,36.7-8.8,47.4c0,7.9,2.2,14.2,7.1,18.6c4,3.6,8.8,5.3,15,5.3c12.9,0,37.2-11.5,73.6-35.5
				c33.2-21.2,52.2-34.6,57.2-39.8c2.2-1.7,3.1-3.6,3.1-5.3c0-2.6-2.2-5.7-7.6-9.8c-6.2-4.5-16-10.2-29.7-16.9
				c-15-7.1-26.2-12.9-33.6-18.1c-12.9-8.4-24.3-19.5-34.1-32.8c-1.4-1.7-4-4-7.9-6.2c-1.7-1.4-3.1-4-3.1-8.4v-17.8
				c0-1.4,0-2.6,0.5-3.1c0.9-0.5,2.2-0.5,4.8,0.9l29.7,14.2c0.9,0.9,2.2,1.4,3.1,1.7c4.8,2.6,6.7,4.8,5.3,6.2
				c-1.4,1.7-7.1,2.2-16.4,1.7c10.7,10.7,25.3,20.4,42.9,28.8c21.7,10.2,34.6,16.9,38.6,20c9.8,6.7,14.2,17.7,14.2,34.1
				c0,3.1,0,6.7-0.5,9.8c-1.7,8.8-3.6,15.5-5.3,19.1c-1.4,2.6-4.5,6.2-9.3,10.7c-8.4,7.6-27,21.2-55.3,39.8
				C1441.9,509.3,1418.8,520.9,1408.3,520.9"/>
			<path d="M1290.8,341c0,16.4-3.6,29.3-10.7,39c-6.2,7.9-13.3,11.9-21.2,11.9v-29.3c11,0,18.1-2.6,21.7-7.9c0-3.1-1.7-7.9-5.7-14.2
				c-1.7-2.6-2.6-5.3-2.6-7.9c0-1.4,2.2-7.9,5.7-20.4c0.9-2.2,1.4-3.6,2.2-3.6c1.4,0,2.2,1.7,4,4.8
				C1288.6,323.3,1290.8,332.6,1290.8,341"/>
			<path d="M1096.8,525.8c-35.9,0-60.7-17.7-74.4-53.2c-2.6-7.1-4-16-4-26.6c0-7.1,0.5-14.2,1.4-21.7c1.7-10.7,4.5-20,7.6-28.4
				c0.9-2.2,1.7-3.6,2.6-3.6c0.9,0,1.4,1.7,0.9,4.8c-1.4,4.8-2.6,9.8-3.6,15c-1.7,8.8-2.6,15.5-2.6,19.5c0,14.6,4.8,27.9,14.6,40.3
				c13.3,16.4,32.4,24.8,57.6,24.8c21.7,0,44.8-5.3,68.7-16c19.1-7.9,36.7-18.6,53.2-31.5c13.8-10.2,21.7-18.1,23.9-23.5
				c0-16-4.5-33.2-13.3-51.4c-1.7-3.6-2.2-6.2-2.2-7.9c0-1.4,1.7-7.9,5.3-20.4c0.9-2.2,1.4-3.1,2.2-3.1c0.9,0,2.2,1.4,3.6,4.5
				c2.6,5.7,4.5,8.8,5.7,10.2c3.1,3.6,7.9,5.3,15,4.8v28.8c-3.6,0.5-5.7,0-7.6-0.5c0,19.5-0.9,34.6-3.6,44.8
				c-2.2,11.5-6.2,20-11.9,26.2c-16,15.5-35,29.3-57.6,41.2C1149,518.3,1122,525.8,1096.8,525.8"/>
		</g>
		<g id="حودا">
			<path d="M1378.7,176.5l-4.4,8.7c-0.5,1.2-1.4,1.6-2.8,1.6h-19.8c-6.4,0-19.5,3-39,9c-4.6,1.4-12.9,4.4-24.4,9.4v-13.5
				c10.4-4.4,23.2-8.5,38.6-12.4l-27.6-7.6c-2.8-0.9-4.8-1.2-5.7-1.2s-1.9,0.5-2.5,1.2c-0.7,0.9-1.9,1.4-3.7,0.9
				c-5.7-0.2-12-0.5-18.9-1.2c-1.4-0.2-2.1-0.7-2.1-1.9c0-0.5,0-1.2,0.2-1.9l4.8-9.4c0.9-1.6,1.9-2.5,3-2.8c9-1.2,15.6-1.6,20.7-1.2
				c11,3.9,26.2,8.7,45.9,14.5c3.9,0.9,10.8,2.1,20.5,3.2c9.7,1.2,14.9,2.1,16.1,2.3C1378.9,174.6,1379.4,175.3,1378.7,176.5"/>
			<path d="M1281.9,211.7c0-1.6-0.2-3.2-0.9-5c-3,1.2-7.3,1.9-12.6,1.9c-12,0-17.7-4.1-17.7-12.2c0-6.2,1.9-11.7,5.7-16.5
				c3.7-4.4,7.6-6.4,11.7-6.4c3,0,6.4,1.9,9.9,5.7c3.2,3.5,6.2,7.8,8.5,13.1c0.2,0,0.9-0.2,1.9-0.5v13.3l-0.5,0.5
				c0,2.8-0.7,6.4-2.3,10.8c-1.6,5.5-4.1,10.4-7.3,14c-7.6,8.7-15.6,16.3-24.4,23c-13.1,9.9-24.6,14.9-34.5,14.9
				c-8,0-14.5-3.2-18.9-9.2c-4.1-5.3-5.9-12-5.9-20c0-10.4,2.1-20.9,6.4-31.9c1.2-2.3,1.9-3.5,2.1-3.5s0.5,0.2,0.5,0.7
				c0,0.7-0.2,1.9-0.7,3.5c-3.2,10.8-4.6,18.9-4.6,24.4c0,5.3,1.2,9.7,3.7,13.3c3.9,5,10.1,7.8,18.6,7.8c7.3,0,16.3-3.2,26.7-9.7
				c8.5-5,16.5-11.3,24.1-18.6C1278.5,218.3,1281.9,213.9,1281.9,211.7 M1274.4,193.7c-3.5-4.6-6.6-6.9-9.7-6.9
				c-4.4,0-6.4,1.2-6.4,3.5c0,2.8,3,4.4,9,4.4C1269.3,194.7,1271.6,194.2,1274.4,193.7"/>
			<path d="M1190.2,254.9c-8.7,0-12.9-5.7-12.9-17c0-8.5,1.7-17.5,5.3-26.3c0.7-1.9,1.3-2.9,1.7-2.9c0.2,0,0.4,0.2,0.4,0.6
				c0,0.7-0.2,1.7-0.6,2.9c-2.7,8.9-3.8,15.7-3.8,20.3c0,3.4,1,6.1,3,8c1.7,1.5,3.8,2.3,6.4,2.3c5.5,0,15.9-4.9,31.5-15.2
				c14.2-9.1,22.4-14.8,24.5-17c1-0.7,1.3-1.5,1.3-2.3c0-1.1-1-2.4-3.2-4.2c-2.7-1.9-6.8-4.4-12.7-7.2c-6.4-3-11.2-5.5-14.4-7.8
				c-5.5-3.6-10.4-8.3-14.6-14c-0.6-0.7-1.7-1.7-3.4-2.7c-0.7-0.6-1.3-1.7-1.3-3.6v-7.6c0-0.6,0-1.1,0.2-1.3c0.4-0.2,1-0.2,2.1,0.4
				l12.7,6.1c0.4,0.4,1,0.6,1.3,0.7c2.1,1.1,2.9,2.1,2.3,2.7c-0.6,0.7-3,1-7,0.7c4.6,4.6,10.8,8.7,18.4,12.3
				c9.3,4.4,14.8,7.2,16.5,8.5c4.2,2.9,6.1,7.6,6.1,14.6c0,1.3,0,2.9-0.2,4.2c-0.7,3.8-1.5,6.6-2.3,8.2c-0.6,1.1-1.9,2.7-4,4.6
				c-3.6,3.2-11.6,9.1-23.7,17C1204.6,250,1194.7,254.9,1190.2,254.9"/>
			<path d="M1185.2,122c0-4-0.6-7.2-1.7-9.9c0-1.3,1.1-4.7,3.4-10.2c0.2-0.6,0.6-1,0.7-1c0.2,0,0.4,0.4,0.7,1
				c0.7,1.5,2.3,5.3,4.6,11.7c2.7,6.6,4,10.6,4.4,12.2c0.4,1.1,0.6,2.1,0.6,2.7c0,1.7-1.7,0.6-5.3-3.4c-0.4-0.6-0.6-0.2-0.6,0.7
				c0,0.4,1,13.1,2.7,38.1c1.9,24.8,2.9,38.9,2.9,42.1c0,9.5-1.5,18-4.4,25.2c-0.7,1.5-1.1,2.7-1.5,3.2c-0.6,1-1,1.1-1.1,0.4
				c-0.2-0.7,0-2.3,0.2-4.6c0.4-3.4,0.6-7.2,0.6-11.6c0-4-1-20.1-3-48.7C1186.3,141.3,1185.2,125.4,1185.2,122"/>
		</g>
		<g id="_x37_odaa_design">
			<g>
				<path d="M1404.3,153.7h27.6c19.4,0,32.7,11.3,32.7,29.2s-13.3,29.2-32.7,29.2h-27.6V153.7z M1431.2,199c9.9,0,16.6-5.9,16.6-16
					s-6.7-16-16.6-16h-10.4V199H1431.2z"/>
				<path d="M1520.2,199.4v12.8h-46.9v-58.5h45.8v12.8h-29.5v9.9h26v12.4h-26v10.7H1520.2z"/>
				<path d="M1525.3,206.9l5.4-12.2c5.2,3.4,12.5,5.8,19.3,5.8c6.8,0,9.5-1.9,9.5-4.8c0-9.3-33.2-2.5-33.2-24.2
					c0-10.4,8.5-19,25.9-19c7.6,0,15.4,1.8,21.2,5.1l-5.1,12.3c-5.6-3-11.1-4.5-16.2-4.5c-6.9,0-9.4,2.3-9.4,5.3
					c0,8.9,33.2,2.3,33.2,23.8c0,10.2-8.5,18.9-25.9,18.9C1540.3,213.3,1530.8,210.8,1525.3,206.9z"/>
				<path d="M1583.4,153.7h16.5v58.5h-16.5V153.7z"/>
				<path d="M1650.9,181.7h14.6v24.2c-6.8,4.8-16,7.4-24.6,7.4c-18.6,0-32.2-12.6-32.2-30.4s13.6-30.4,32.6-30.4
					c10.9,0,19.8,3.8,25.6,10.7l-10.5,9.5c-4-4.4-8.6-6.5-14.2-6.5c-10,0-16.7,6.6-16.7,16.7c0,9.9,6.7,16.7,16.5,16.7
					c3.1,0,6-0.6,8.9-1.9V181.7z"/>
				<path d="M1731.6,153.7v58.5H1718l-25.8-31.1v31.1H1676v-58.5h13.6l25.8,31.1v-31.1H1731.6z"/>
				<path d="M1451.3,230.1V241l-21.7,50.5h-18.9l20.7-47.6h-16.1v9.5h-14.8v-23.2H1451.3z"/>
				<path d="M1455.4,260.8c0-18.4,14.5-31.9,34.1-31.9c19.6,0,34.1,13.5,34.1,31.9s-14.5,31.9-34.1,31.9
					C1469.9,292.7,1455.4,279.2,1455.4,260.8z M1506.1,260.8c0-10.6-7.3-17.5-16.6-17.5c-9.3,0-16.6,6.9-16.6,17.5
					s7.3,17.5,16.6,17.5C1498.8,278.4,1506.1,271.4,1506.1,260.8z"/>
				<path d="M1532.8,230.1h29c20.3,0,34.3,11.8,34.3,30.7c0,18.9-13.9,30.7-34.3,30.7h-29V230.1z M1561.1,277.7
					c10.4,0,17.5-6.2,17.5-16.8s-7-16.8-17.5-16.8h-11v33.7H1561.1z"/>
				<path d="M1645.4,279.6h-26l-4.8,11.9h-17.7l27.1-61.4h17.1l27.2,61.4h-18.1L1645.4,279.6z M1640.3,266.8l-7.9-19.6l-7.9,19.6
					H1640.3z"/>
				<path d="M1716.9,279.6h-26l-4.8,11.9h-17.7l27.1-61.4h17.1l27.2,61.4h-18.1L1716.9,279.6z M1711.8,266.8l-7.9-19.6l-7.9,19.6
					H1711.8z"/>
			</g>
		</g>
	</g>
</g>
</svg>
